# xmcd
#
# Track frame offsets:
#	150
#	10417
#	23932
#	36552
#	48795
#	61140
#	75767
#	87070
#	100545
#	111452
#	125350
#	136302
#	147727
#	159372
#	176695
#	186537
#	197209
#	209797
#	220977
#	233190
#
# Disc length: 3250 seconds
#
# Revision: 1
# Processed by: cddbd v1.5PL3 Copyright (c) Steve Scherf et al.
# Submitted via: audiograbber 1.83.01
#
DISCID=210cb014
DTITLE=Fabian Ortega - 20 Exitos De Un Rey Y Un Peon
DYEAR=2003
DGENRE=Latin
TTITLE0=El Chaka - (with Fabian Ortega "El Halcon De La Sierra")
TTITLE1=El Cura - (with El Tacuache)
TTITLE2=El Halcon - (with Fabian Ortega "El Halcon De La Sierra")
TTITLE3=El Tigre De La Madrugada - (with El Tacuache)
TTITLE4=Amigo Mesero - (with Fabian Ortega "El Halcon De La Sierra")
TTITLE5=Sufriendo Y Penando - (with El Tacuache)
TTITLE6=Flor Hermosa - (with Fabian Ortega "El Halcon De La Sierra")
TTITLE7=Inalcanzable - (with El Tacuache)
TTITLE8=El Pavido Navido - (with Fabian Ortega "El Halcon De La Sierra")
TTITLE9=El Sinaloense - (with El Tacuache)
TTITLE10=Huevos Y Frijoles - (with Fabian Ortega "El Halcon De La Sierra")
TTITLE11=Termina La Temporada - (with El Tacuache)
TTITLE12=Madresita Querida - (with Fabian Ortega "El Halcon De La Sierra")
TTITLE13=Reyna Mia - (with El Tacuache)
TTITLE14=Los Sufrimientos - (with Fabian Ortega "El Halcon De La Sierra")
TTITLE15=Caminos De La Vida - (with El Tacuache)
TTITLE16=Negocio Cuajado - (with Fabian Ortega "El Halcon De La Sierra")
TTITLE17=Negocio Con Los Gringos - (with El Tacuache)
TTITLE18=El Gallo De Sinaloa - (with Fabian Ortega "El Halcon De La Sierra")
TTITLE19=Que Suene La Banda - (with El Tacuache)
EXTD=
EXTT0=
EXTT1=
EXTT2=
EXTT3=
EXTT4=
EXTT5=
EXTT6=
EXTT7=
EXTT8=
EXTT9=
EXTT10=
EXTT11=
EXTT12=
EXTT13=
EXTT14=
EXTT15=
EXTT16=
EXTT17=
EXTT18=
EXTT19=
PLAYORDER=
